<mxfile host="app.diagrams.net" modified="2023-08-08T15:12:57.155Z" agent="Mozilla/5.0 (Windows NT 10.0; Win64; x64) AppleWebKit/537.36 (KHTML, like Gecko) Chrome/114.0.0.0 Safari/537.36" etag="8X8fb7xTa24hI0-vLBHN" version="21.3.5" type="device">
  <diagram name="Страница 1" id="sxnnq-oF2Db1bufM0eA2">
    <mxGraphModel dx="1290" dy="587" grid="1" gridSize="10" guides="1" tooltips="1" connect="1" arrows="1" fold="1" page="1" pageScale="1" pageWidth="827" pageHeight="1169" math="0" shadow="0">
      <root>
        <mxCell id="0" />
        <mxCell id="1" parent="0" />
        <mxCell id="skozyO5AWTtgqXuGjHEj-1" style="edgeStyle=none;html=1;entryX=0.5;entryY=0;entryDx=0;entryDy=0;" edge="1" parent="1" source="skozyO5AWTtgqXuGjHEj-2">
          <mxGeometry relative="1" as="geometry">
            <mxPoint x="449" y="120" as="targetPoint" />
          </mxGeometry>
        </mxCell>
        <mxCell id="skozyO5AWTtgqXuGjHEj-2" value="получение массива строк (Array)" style="rounded=0;whiteSpace=wrap;html=1;" vertex="1" parent="1">
          <mxGeometry x="388" y="40" width="120" height="40" as="geometry" />
        </mxCell>
        <mxCell id="skozyO5AWTtgqXuGjHEj-3" style="edgeStyle=none;html=1;entryX=0.5;entryY=0;entryDx=0;entryDy=0;" edge="1" parent="1" source="skozyO5AWTtgqXuGjHEj-4" target="skozyO5AWTtgqXuGjHEj-6">
          <mxGeometry relative="1" as="geometry" />
        </mxCell>
        <mxCell id="skozyO5AWTtgqXuGjHEj-4" value="инициализация&amp;nbsp; нового массива(NewArray), размером N" style="rounded=0;whiteSpace=wrap;html=1;" vertex="1" parent="1">
          <mxGeometry x="353" y="550" width="190" height="40" as="geometry" />
        </mxCell>
        <mxCell id="skozyO5AWTtgqXuGjHEj-5" style="edgeStyle=none;html=1;entryX=0.5;entryY=0;entryDx=0;entryDy=0;" edge="1" parent="1" source="skozyO5AWTtgqXuGjHEj-6" target="skozyO5AWTtgqXuGjHEj-9">
          <mxGeometry relative="1" as="geometry" />
        </mxCell>
        <mxCell id="skozyO5AWTtgqXuGjHEj-6" value="счётчики:&lt;br&gt;temp = 0&lt;br&gt;i = 0" style="rounded=0;whiteSpace=wrap;html=1;" vertex="1" parent="1">
          <mxGeometry x="388" y="620" width="120" height="60" as="geometry" />
        </mxCell>
        <mxCell id="skozyO5AWTtgqXuGjHEj-7" style="edgeStyle=none;html=1;entryX=0.5;entryY=0;entryDx=0;entryDy=0;" edge="1" parent="1" source="skozyO5AWTtgqXuGjHEj-9" target="skozyO5AWTtgqXuGjHEj-12">
          <mxGeometry relative="1" as="geometry" />
        </mxCell>
        <mxCell id="skozyO5AWTtgqXuGjHEj-8" style="edgeStyle=none;html=1;entryX=0.5;entryY=0;entryDx=0;entryDy=0;" edge="1" parent="1" source="skozyO5AWTtgqXuGjHEj-9" target="skozyO5AWTtgqXuGjHEj-23">
          <mxGeometry relative="1" as="geometry">
            <Array as="points">
              <mxPoint x="569" y="740" />
              <mxPoint x="569" y="1030" />
              <mxPoint x="449" y="1030" />
            </Array>
          </mxGeometry>
        </mxCell>
        <mxCell id="skozyO5AWTtgqXuGjHEj-9" value="i &amp;lt; длина массива Array" style="rhombus;whiteSpace=wrap;html=1;" vertex="1" parent="1">
          <mxGeometry x="369" y="710" width="160" height="60" as="geometry" />
        </mxCell>
        <mxCell id="skozyO5AWTtgqXuGjHEj-10" style="edgeStyle=none;html=1;entryX=0.5;entryY=0;entryDx=0;entryDy=0;" edge="1" parent="1" source="skozyO5AWTtgqXuGjHEj-12" target="skozyO5AWTtgqXuGjHEj-14">
          <mxGeometry relative="1" as="geometry" />
        </mxCell>
        <mxCell id="skozyO5AWTtgqXuGjHEj-11" style="edgeStyle=none;html=1;" edge="1" parent="1" source="skozyO5AWTtgqXuGjHEj-12">
          <mxGeometry relative="1" as="geometry">
            <mxPoint x="309" y="840" as="targetPoint" />
          </mxGeometry>
        </mxCell>
        <mxCell id="skozyO5AWTtgqXuGjHEj-12" value="Array[ i ] &amp;lt;= limit" style="rhombus;whiteSpace=wrap;html=1;" vertex="1" parent="1">
          <mxGeometry x="369" y="810" width="160" height="60" as="geometry" />
        </mxCell>
        <mxCell id="skozyO5AWTtgqXuGjHEj-13" style="edgeStyle=none;html=1;entryX=0.5;entryY=0;entryDx=0;entryDy=0;" edge="1" parent="1" source="skozyO5AWTtgqXuGjHEj-14" target="skozyO5AWTtgqXuGjHEj-16">
          <mxGeometry relative="1" as="geometry" />
        </mxCell>
        <mxCell id="skozyO5AWTtgqXuGjHEj-14" value="NewArray[ temp]&amp;nbsp; = array[ i ]" style="rounded=0;whiteSpace=wrap;html=1;" vertex="1" parent="1">
          <mxGeometry x="389" y="900" width="120" height="40" as="geometry" />
        </mxCell>
        <mxCell id="skozyO5AWTtgqXuGjHEj-15" style="edgeStyle=none;html=1;entryX=0.5;entryY=1;entryDx=0;entryDy=0;" edge="1" parent="1" source="skozyO5AWTtgqXuGjHEj-16" target="skozyO5AWTtgqXuGjHEj-21">
          <mxGeometry relative="1" as="geometry">
            <Array as="points">
              <mxPoint x="279" y="990" />
            </Array>
          </mxGeometry>
        </mxCell>
        <mxCell id="skozyO5AWTtgqXuGjHEj-16" value="temp = temp +1" style="rounded=0;whiteSpace=wrap;html=1;" vertex="1" parent="1">
          <mxGeometry x="389" y="970" width="120" height="40" as="geometry" />
        </mxCell>
        <mxCell id="skozyO5AWTtgqXuGjHEj-17" value="Yes" style="text;html=1;strokeColor=none;fillColor=none;align=center;verticalAlign=middle;whiteSpace=wrap;rounded=0;" vertex="1" parent="1">
          <mxGeometry x="459" y="780" width="20" height="10" as="geometry" />
        </mxCell>
        <mxCell id="skozyO5AWTtgqXuGjHEj-18" value="Yes" style="text;html=1;strokeColor=none;fillColor=none;align=center;verticalAlign=middle;whiteSpace=wrap;rounded=0;" vertex="1" parent="1">
          <mxGeometry x="459" y="880" width="20" height="10" as="geometry" />
        </mxCell>
        <mxCell id="skozyO5AWTtgqXuGjHEj-19" value="No" style="text;html=1;strokeColor=none;fillColor=none;align=center;verticalAlign=middle;whiteSpace=wrap;rounded=0;" vertex="1" parent="1">
          <mxGeometry x="539" y="750" width="20" height="10" as="geometry" />
        </mxCell>
        <mxCell id="skozyO5AWTtgqXuGjHEj-20" style="edgeStyle=none;html=1;entryX=0;entryY=0.5;entryDx=0;entryDy=0;" edge="1" parent="1" source="skozyO5AWTtgqXuGjHEj-21" target="skozyO5AWTtgqXuGjHEj-9">
          <mxGeometry relative="1" as="geometry">
            <Array as="points">
              <mxPoint x="279" y="740" />
            </Array>
          </mxGeometry>
        </mxCell>
        <mxCell id="skozyO5AWTtgqXuGjHEj-21" value="i = i +1" style="rounded=0;whiteSpace=wrap;html=1;" vertex="1" parent="1">
          <mxGeometry x="249" y="820" width="60" height="40" as="geometry" />
        </mxCell>
        <mxCell id="skozyO5AWTtgqXuGjHEj-22" value="No" style="text;html=1;strokeColor=none;fillColor=none;align=center;verticalAlign=middle;whiteSpace=wrap;rounded=0;" vertex="1" parent="1">
          <mxGeometry x="349" y="850" width="20" height="10" as="geometry" />
        </mxCell>
        <mxCell id="skozyO5AWTtgqXuGjHEj-23" value="NewArray" style="shape=document;whiteSpace=wrap;html=1;boundedLbl=1;" vertex="1" parent="1">
          <mxGeometry x="399" y="1060" width="100" height="50" as="geometry" />
        </mxCell>
        <mxCell id="skozyO5AWTtgqXuGjHEj-24" value="" style="endArrow=none;dashed=1;html=1;dashPattern=1 3;strokeWidth=2;" edge="1" parent="1">
          <mxGeometry width="50" height="50" relative="1" as="geometry">
            <mxPoint x="549" y="1020" as="sourcePoint" />
            <mxPoint x="549" y="1020" as="targetPoint" />
            <Array as="points">
              <mxPoint x="239" y="1020" />
              <mxPoint x="239" y="610" />
              <mxPoint x="549" y="610" />
            </Array>
          </mxGeometry>
        </mxCell>
        <mxCell id="skozyO5AWTtgqXuGjHEj-25" value="Метод формирования нового массива строк" style="text;html=1;strokeColor=none;fillColor=none;align=center;verticalAlign=middle;whiteSpace=wrap;rounded=0;" vertex="1" parent="1">
          <mxGeometry x="239" y="610" width="110" height="70" as="geometry" />
        </mxCell>
        <mxCell id="skozyO5AWTtgqXuGjHEj-26" style="edgeStyle=none;html=1;entryX=0.5;entryY=0;entryDx=0;entryDy=0;" edge="1" parent="1" source="skozyO5AWTtgqXuGjHEj-27" target="skozyO5AWTtgqXuGjHEj-30">
          <mxGeometry relative="1" as="geometry" />
        </mxCell>
        <mxCell id="skozyO5AWTtgqXuGjHEj-27" value="счётчики:&lt;br&gt;N= 0&lt;br&gt;i = 0" style="rounded=0;whiteSpace=wrap;html=1;" vertex="1" parent="1">
          <mxGeometry x="388" y="184" width="120" height="60" as="geometry" />
        </mxCell>
        <mxCell id="skozyO5AWTtgqXuGjHEj-28" style="edgeStyle=none;html=1;entryX=0.5;entryY=0;entryDx=0;entryDy=0;" edge="1" parent="1" source="skozyO5AWTtgqXuGjHEj-30" target="skozyO5AWTtgqXuGjHEj-33">
          <mxGeometry relative="1" as="geometry" />
        </mxCell>
        <mxCell id="skozyO5AWTtgqXuGjHEj-29" style="edgeStyle=none;html=1;" edge="1" parent="1" source="skozyO5AWTtgqXuGjHEj-30" target="skozyO5AWTtgqXuGjHEj-4">
          <mxGeometry relative="1" as="geometry">
            <Array as="points">
              <mxPoint x="589" y="304" />
              <mxPoint x="589" y="530" />
              <mxPoint x="448" y="530" />
            </Array>
          </mxGeometry>
        </mxCell>
        <mxCell id="skozyO5AWTtgqXuGjHEj-30" value="i &amp;lt; длина массива Array" style="rhombus;whiteSpace=wrap;html=1;" vertex="1" parent="1">
          <mxGeometry x="368" y="274" width="160" height="60" as="geometry" />
        </mxCell>
        <mxCell id="skozyO5AWTtgqXuGjHEj-31" style="edgeStyle=none;html=1;entryX=0.5;entryY=0;entryDx=0;entryDy=0;" edge="1" parent="1" source="skozyO5AWTtgqXuGjHEj-33">
          <mxGeometry relative="1" as="geometry">
            <mxPoint x="448" y="464" as="targetPoint" />
          </mxGeometry>
        </mxCell>
        <mxCell id="skozyO5AWTtgqXuGjHEj-32" style="edgeStyle=none;html=1;" edge="1" parent="1" source="skozyO5AWTtgqXuGjHEj-33">
          <mxGeometry relative="1" as="geometry">
            <mxPoint x="308" y="404" as="targetPoint" />
          </mxGeometry>
        </mxCell>
        <mxCell id="skozyO5AWTtgqXuGjHEj-33" value="Array[ i ] &amp;lt;= limit" style="rhombus;whiteSpace=wrap;html=1;" vertex="1" parent="1">
          <mxGeometry x="368" y="374" width="160" height="60" as="geometry" />
        </mxCell>
        <mxCell id="skozyO5AWTtgqXuGjHEj-34" style="edgeStyle=none;html=1;entryX=0.5;entryY=1;entryDx=0;entryDy=0;" edge="1" parent="1" source="skozyO5AWTtgqXuGjHEj-35" target="skozyO5AWTtgqXuGjHEj-40">
          <mxGeometry relative="1" as="geometry">
            <Array as="points">
              <mxPoint x="278" y="484" />
            </Array>
          </mxGeometry>
        </mxCell>
        <mxCell id="skozyO5AWTtgqXuGjHEj-35" value="N = N +1" style="rounded=0;whiteSpace=wrap;html=1;" vertex="1" parent="1">
          <mxGeometry x="387" y="464" width="120" height="40" as="geometry" />
        </mxCell>
        <mxCell id="skozyO5AWTtgqXuGjHEj-36" value="Yes" style="text;html=1;strokeColor=none;fillColor=none;align=center;verticalAlign=middle;whiteSpace=wrap;rounded=0;" vertex="1" parent="1">
          <mxGeometry x="458" y="344" width="20" height="10" as="geometry" />
        </mxCell>
        <mxCell id="skozyO5AWTtgqXuGjHEj-37" value="Yes" style="text;html=1;strokeColor=none;fillColor=none;align=center;verticalAlign=middle;whiteSpace=wrap;rounded=0;" vertex="1" parent="1">
          <mxGeometry x="458" y="444" width="20" height="10" as="geometry" />
        </mxCell>
        <mxCell id="skozyO5AWTtgqXuGjHEj-38" value="No" style="text;html=1;strokeColor=none;fillColor=none;align=center;verticalAlign=middle;whiteSpace=wrap;rounded=0;" vertex="1" parent="1">
          <mxGeometry x="538" y="314" width="20" height="10" as="geometry" />
        </mxCell>
        <mxCell id="skozyO5AWTtgqXuGjHEj-39" style="edgeStyle=none;html=1;entryX=0;entryY=0.5;entryDx=0;entryDy=0;" edge="1" parent="1" source="skozyO5AWTtgqXuGjHEj-40" target="skozyO5AWTtgqXuGjHEj-30">
          <mxGeometry relative="1" as="geometry">
            <Array as="points">
              <mxPoint x="278" y="304" />
            </Array>
          </mxGeometry>
        </mxCell>
        <mxCell id="skozyO5AWTtgqXuGjHEj-40" value="i = i +1" style="rounded=0;whiteSpace=wrap;html=1;" vertex="1" parent="1">
          <mxGeometry x="248" y="384" width="60" height="40" as="geometry" />
        </mxCell>
        <mxCell id="skozyO5AWTtgqXuGjHEj-41" value="No" style="text;html=1;strokeColor=none;fillColor=none;align=center;verticalAlign=middle;whiteSpace=wrap;rounded=0;" vertex="1" parent="1">
          <mxGeometry x="348" y="414" width="20" height="10" as="geometry" />
        </mxCell>
        <mxCell id="skozyO5AWTtgqXuGjHEj-42" value="" style="endArrow=none;dashed=1;html=1;dashPattern=1 3;strokeWidth=2;" edge="1" parent="1">
          <mxGeometry width="50" height="50" relative="1" as="geometry">
            <mxPoint x="548" y="520" as="sourcePoint" />
            <mxPoint x="548" y="520" as="targetPoint" />
            <Array as="points">
              <mxPoint x="238" y="520" />
              <mxPoint x="238" y="174" />
              <mxPoint x="548" y="174" />
            </Array>
          </mxGeometry>
        </mxCell>
        <mxCell id="skozyO5AWTtgqXuGjHEj-43" value="Метод подсчёта количества элементов, размер которых меньше limit" style="text;html=1;strokeColor=none;fillColor=none;align=center;verticalAlign=middle;whiteSpace=wrap;rounded=0;" vertex="1" parent="1">
          <mxGeometry x="238" y="174" width="120" height="70" as="geometry" />
        </mxCell>
        <mxCell id="skozyO5AWTtgqXuGjHEj-44" style="edgeStyle=none;html=1;entryX=0.5;entryY=0;entryDx=0;entryDy=0;" edge="1" parent="1" source="skozyO5AWTtgqXuGjHEj-45" target="skozyO5AWTtgqXuGjHEj-27">
          <mxGeometry relative="1" as="geometry" />
        </mxCell>
        <mxCell id="skozyO5AWTtgqXuGjHEj-45" value="limit = 3" style="rounded=0;whiteSpace=wrap;html=1;" vertex="1" parent="1">
          <mxGeometry x="388" y="108" width="120" height="40" as="geometry" />
        </mxCell>
      </root>
    </mxGraphModel>
  </diagram>
</mxfile>
